# xmcd
#
# Track frame offsets:
#	150
#	21437
#	42537
#	62460
#	79122
#	96630
#	111170
#	130312
#	147967
#	168382
#	186492
#	206502
#	223250
#	240042
#
# Disc length: 3465 seconds
#
# Revision: 1
# Processed by: cddbd v1.5.1PL0 Copyright (c) Steve Scherf et al.
# Submitted via: CDex 1.50Beta5
#
DISCID=d00d870e
DTITLE=北島三郎 - 北の漁場/北島三郎ベスト14
DYEAR=1900
DGENRE=Other
TTITLE0=北の漁場
TTITLE1=箱根のおんな
TTITLE2=浪曲太鼓
TTITLE3=なみだ船
TTITLE4=激唱-青函トンネル-
TTITLE5=函館の女
TTITLE6=神奈川水滸伝
TTITLE7=歩
TTITLE8=風雪ながれ旅
TTITLE9=与作
TTITLE10=終着駅は始発駅
TTITLE11=男の涙
TTITLE12=兄弟仁義
TTITLE13=まつり
EXTD=
EXTT0=
EXTT1=
EXTT2=
EXTT3=
EXTT4=
EXTT5=
EXTT6=
EXTT7=
EXTT8=
EXTT9=
EXTT10=
EXTT11=
EXTT12=
EXTT13=
PLAYORDER=
